<svg width="162" height="42" viewBox="0 0 162 42" fill="none" xmlns="http://www.w3.org/2000/svg">
<path d="M57.2524 23.7421V13H61.231C61.8545 13 62.4087 13.1279 62.8936 13.3836C63.3885 13.6292 63.7794 13.9821 64.0664 14.4425C64.3534 14.9029 64.4969 15.4605 64.4969 16.1152V16.3147C64.4969 16.9592 64.3485 17.5168 64.0516 17.9874C63.7645 18.4478 63.3736 18.8007 62.8788 19.0463C62.3839 19.2918 61.8347 19.4146 61.231 19.4146H58.4994V23.7421H57.2524ZM58.4994 18.2483H61.0974C61.7604 18.2483 62.285 18.0795 62.6709 17.7419C63.0569 17.394 63.2499 16.9081 63.2499 16.284V16.1306C63.2499 15.5065 63.0569 15.0257 62.6709 14.688C62.2949 14.3402 61.7703 14.1663 61.0974 14.1663H58.4994V18.2483Z" fill="#FF8906"/>
<path d="M66.2128 23.7421V16.238H67.3559V17.1587H67.5637C67.6924 16.8314 67.8903 16.5909 68.1575 16.4375C68.4248 16.284 68.7761 16.2073 69.2115 16.2073H70.0726V17.3122H69.1373C68.6128 17.3122 68.1872 17.4656 67.8606 17.7726C67.5439 18.0693 67.3856 18.5347 67.3856 19.169V23.7421H66.2128Z" fill="#FF8906"/>
<path d="M74.9028 23.9569C74.1705 23.9569 73.5222 23.7984 72.9581 23.4812C72.4039 23.1641 71.9684 22.719 71.6517 22.1461C71.3449 21.563 71.1915 20.8775 71.1915 20.0898V19.8903C71.1915 19.1128 71.3449 18.4324 71.6517 17.8493C71.9684 17.2662 72.4039 16.816 72.9581 16.4989C73.5222 16.1817 74.1705 16.0231 74.9028 16.0231C75.6352 16.0231 76.2785 16.1817 76.8327 16.4989C77.3968 16.816 77.8323 17.2662 78.1391 17.8493C78.4558 18.4324 78.6141 19.1128 78.6141 19.8903V20.0898C78.6141 20.8775 78.4558 21.563 78.1391 22.1461C77.8323 22.719 77.3968 23.1641 76.8327 23.4812C76.2785 23.7984 75.6352 23.9569 74.9028 23.9569ZM74.9028 22.8674C75.6748 22.8674 76.2884 22.6167 76.7436 22.1154C77.2088 21.6039 77.4414 20.9185 77.4414 20.0591V19.921C77.4414 19.0616 77.2088 18.3813 76.7436 17.88C76.2884 17.3685 75.6748 17.1127 74.9028 17.1127C74.1408 17.1127 73.5272 17.3685 73.062 17.88C72.5969 18.3813 72.3643 19.0616 72.3643 19.921V20.0591C72.3643 20.9185 72.5969 21.6039 73.062 22.1154C73.5272 22.6167 74.1408 22.8674 74.9028 22.8674Z" fill="#FF8906"/>
<path d="M79.2995 26.8113V25.7371H80.3089C80.6058 25.7371 80.7543 25.5836 80.7543 25.2767V16.238H81.9271V25.4915C81.9271 25.9008 81.8132 26.223 81.5856 26.4583C81.3679 26.6936 81.0512 26.8113 80.6355 26.8113H79.2995ZM81.3481 15.0717C81.0908 15.0717 80.873 14.9847 80.6949 14.8108C80.5267 14.6369 80.4425 14.4169 80.4425 14.1509C80.4425 13.8747 80.5267 13.6496 80.6949 13.4757C80.873 13.3018 81.0908 13.2148 81.3481 13.2148C81.6054 13.2148 81.8182 13.3018 81.9864 13.4757C82.1547 13.6496 82.2388 13.8747 82.2388 14.1509C82.2388 14.4169 82.1547 14.6369 81.9864 14.8108C81.8182 14.9847 81.6054 15.0717 81.3481 15.0717Z" fill="#FF8906"/>
<path d="M87.7177 23.9569C86.9854 23.9569 86.3421 23.7984 85.7879 23.4812C85.2336 23.1538 84.8031 22.6986 84.4963 22.1154C84.1895 21.5323 84.0361 20.8571 84.0361 20.0898V19.9056C84.0361 19.1281 84.1895 18.4478 84.4963 17.8646C84.8031 17.2815 85.2287 16.8314 85.773 16.5142C86.3173 16.1868 86.9408 16.0231 87.6435 16.0231C88.3264 16.0231 88.9301 16.1766 89.4546 16.4835C89.9792 16.7802 90.3899 17.2099 90.6868 17.7726C90.9837 18.3352 91.1321 18.9951 91.1321 19.7522V20.3046H85.2089C85.2386 21.1128 85.491 21.7471 85.966 22.2075C86.4411 22.6577 87.0349 22.8827 87.7474 22.8827C88.3709 22.8827 88.8509 22.7344 89.1874 22.4377C89.5239 22.141 89.7812 21.7881 89.9594 21.3788L90.9688 21.8853C90.8204 22.2024 90.6126 22.5196 90.3453 22.8367C90.088 23.1538 89.7466 23.4198 89.321 23.6347C88.9054 23.8495 88.3709 23.9569 87.7177 23.9569ZM85.2237 19.3072H89.9445C89.9049 18.6115 89.6724 18.0693 89.2468 17.6805C88.8311 17.2917 88.2967 17.0973 87.6435 17.0973C86.9804 17.0973 86.4361 17.2917 86.0105 17.6805C85.585 18.0693 85.3227 18.6115 85.2237 19.3072Z" fill="#FF8906"/>
<path d="M96.5179 23.9569C95.8153 23.9569 95.1819 23.8035 94.6178 23.4966C94.0635 23.1794 93.6231 22.7293 93.2965 22.1461C92.9798 21.563 92.8215 20.8724 92.8215 20.0744V19.9056C92.8215 19.0974 92.9798 18.4069 93.2965 17.8339C93.6231 17.2508 94.0635 16.8058 94.6178 16.4989C95.1819 16.1817 95.8153 16.0231 96.5179 16.0231C97.2107 16.0231 97.7996 16.1561 98.2845 16.4221C98.7794 16.6881 99.1653 17.0411 99.4425 17.481C99.7295 17.9209 99.9126 18.3915 99.9917 18.8928L98.8487 19.1383C98.7992 18.77 98.6804 18.4324 98.4924 18.1255C98.3142 17.8186 98.0618 17.5731 97.7353 17.3889C97.4087 17.2048 97.0078 17.1127 96.5328 17.1127C96.0478 17.1127 95.6124 17.2252 95.2264 17.4503C94.8503 17.6754 94.5485 17.9976 94.3209 18.4171C94.1031 18.8365 93.9943 19.3378 93.9943 19.921V20.0591C93.9943 20.6422 94.1031 21.1435 94.3209 21.563C94.5485 21.9824 94.8503 22.3047 95.2264 22.5298C95.6124 22.7549 96.0478 22.8674 96.5328 22.8674C97.2553 22.8674 97.8045 22.673 98.1806 22.2842C98.5666 21.8955 98.8041 21.4146 98.8932 20.8417L100.051 21.1026C99.9422 21.5937 99.7443 22.0592 99.4573 22.4991C99.1703 22.939 98.7794 23.292 98.2845 23.558C97.7996 23.8239 97.2107 23.9569 96.5179 23.9569Z" fill="#FF8906"/>
<path d="M104.418 23.7421C104.002 23.7421 103.681 23.6245 103.453 23.3891C103.235 23.1538 103.126 22.8316 103.126 22.4224V17.2968H100.944V16.238H103.126V13.5678H104.299V16.238H106.674V17.2968H104.299V22.2382C104.299 22.5451 104.443 22.6986 104.73 22.6986H106.348V23.7421H104.418Z" fill="#FF8906"/>
<path d="M111.498 23.9569C110.598 23.9569 109.836 23.7421 109.212 23.3124C108.599 22.8827 108.228 22.2024 108.099 21.2714L109.212 21.0105C109.291 21.5016 109.44 21.8904 109.658 22.1768C109.875 22.4531 110.143 22.6525 110.459 22.7753C110.786 22.8879 111.132 22.9441 111.498 22.9441C112.043 22.9441 112.473 22.8316 112.79 22.6065C113.107 22.3814 113.265 22.0796 113.265 21.7011C113.265 21.3123 113.112 21.0412 112.805 20.8878C112.508 20.7241 112.097 20.5911 111.573 20.4888L110.964 20.3814C110.499 20.2995 110.073 20.1716 109.687 19.9977C109.301 19.8238 108.995 19.5885 108.767 19.2918C108.539 18.9951 108.425 18.6217 108.425 18.1716C108.425 17.4963 108.678 16.9695 109.183 16.5909C109.687 16.2124 110.355 16.0231 111.187 16.0231C112.008 16.0231 112.671 16.2175 113.176 16.6063C113.691 16.9848 114.022 17.5219 114.171 18.2176L113.072 18.5092C112.983 17.9669 112.77 17.5884 112.434 17.3736C112.097 17.1485 111.681 17.036 111.187 17.036C110.692 17.036 110.301 17.1332 110.014 17.3275C109.727 17.5117 109.583 17.7879 109.583 18.1562C109.583 18.5143 109.717 18.7803 109.984 18.9542C110.261 19.1179 110.627 19.2407 111.083 19.3225L111.691 19.4299C112.206 19.522 112.666 19.6499 113.072 19.8136C113.488 19.967 113.814 20.1921 114.052 20.4888C114.299 20.7855 114.423 21.1742 114.423 21.6551C114.423 22.3917 114.156 22.9595 113.621 23.3585C113.097 23.7575 112.389 23.9569 111.498 23.9569Z" fill="#FF8906"/>
<path d="M120.171 23.7421V13H121.418V22.5758H126.673V23.7421H120.171Z" fill="#FF8906"/>
<path d="M128.319 23.7421V16.238H129.492V23.7421H128.319ZM128.913 15.0717C128.656 15.0717 128.438 14.9847 128.26 14.8108C128.092 14.6369 128.007 14.4169 128.007 14.1509C128.007 13.8747 128.092 13.6496 128.26 13.4757C128.438 13.3018 128.656 13.2148 128.913 13.2148C129.17 13.2148 129.383 13.3018 129.551 13.4757C129.72 13.6496 129.804 13.8747 129.804 14.1509C129.804 14.4169 129.72 14.6369 129.551 14.8108C129.383 14.9847 129.17 15.0717 128.913 15.0717Z" fill="#FF8906"/>
<path d="M135.981 23.9569C135.229 23.9569 134.64 23.8086 134.214 23.5119C133.799 23.2152 133.497 22.8776 133.309 22.4991H133.101V23.7421H131.958V13H133.131V17.4196H133.339C133.457 17.1843 133.626 16.9643 133.843 16.7597C134.061 16.5449 134.343 16.371 134.69 16.238C135.046 16.0947 135.476 16.0231 135.981 16.0231C136.614 16.0231 137.188 16.1817 137.703 16.4989C138.228 16.8058 138.643 17.2508 138.95 17.8339C139.257 18.4069 139.41 19.0923 139.41 19.8903V20.0898C139.41 20.8878 139.252 21.5783 138.935 22.1615C138.628 22.7446 138.213 23.1897 137.688 23.4966C137.174 23.8035 136.605 23.9569 135.981 23.9569ZM135.669 22.8827C136.421 22.8827 137.03 22.6372 137.495 22.1461C137.97 21.6448 138.208 20.9492 138.208 20.0591V19.921C138.208 19.0309 137.97 18.3404 137.495 17.8493C137.03 17.348 136.421 17.0973 135.669 17.0973C134.927 17.0973 134.313 17.348 133.829 17.8493C133.353 18.3404 133.116 19.0309 133.116 19.921V20.0591C133.116 20.9492 133.353 21.6448 133.829 22.1461C134.313 22.6372 134.927 22.8827 135.669 22.8827Z" fill="#FF8906"/>
<path d="M43.0488 19.8522C43.7293 20.4354 44.3682 21.0363 45.0624 21.565C45.9971 22.2769 46.9725 22.9356 47.9344 23.6116C48.1991 23.7978 48.2965 24.0602 48.1597 24.2874C48.019 24.5208 47.7147 24.5767 47.4639 24.389C46.2368 23.4704 45.0051 22.5568 43.7946 21.6164C43.2672 21.2068 42.7878 20.7359 42.284 20.2955C41.9027 19.9627 41.905 19.639 42.293 19.318C43.6174 18.2227 44.9408 17.1263 46.2633 16.0289C46.6973 15.667 47.1091 15.2787 47.5428 14.9161C47.6442 14.828 47.7724 14.7767 47.9066 14.7705C48.1041 14.7774 48.1806 15.01 48.0446 15.1966C47.9087 15.3831 47.7546 15.5557 47.5846 15.7119C46.174 17.0068 44.7604 18.2986 43.3439 19.5872C43.2596 19.6642 43.1742 19.7394 43.0488 19.8522Z" fill="#FF8906"/>
<path d="M47.2079 19.8522C47.8884 20.4354 48.5274 21.0363 49.2216 21.565C50.1563 22.2769 51.1317 22.9356 52.0935 23.6116C52.3583 23.7978 52.4557 24.0602 52.3189 24.2874C52.1782 24.5208 51.8739 24.5767 51.6231 24.389C50.396 23.4704 49.1643 22.5568 47.9537 21.6164C47.4264 21.2068 46.947 20.7359 46.4432 20.2955C46.0619 19.9627 46.0641 19.639 46.4522 19.318C47.7766 18.2227 49.1 17.1263 50.4225 16.0289C50.8565 15.667 51.2683 15.2787 51.702 14.9161C51.8034 14.828 51.9316 14.7767 52.0658 14.7705C52.2632 14.7774 52.3398 15.01 52.2038 15.1966C52.0678 15.3831 51.9137 15.5557 51.7438 15.7119C50.3331 17.0068 48.9196 18.2986 47.5031 19.5872C47.4188 19.6642 47.3333 19.7394 47.2079 19.8522Z" fill="#FF8906"/>
<path d="M153.951 19.4193C153.271 18.8361 152.632 18.2352 151.938 17.7065C151.003 16.9946 150.027 16.3359 149.066 15.6599C148.801 15.4737 148.703 15.2113 148.84 14.9841C148.981 14.7507 149.285 14.6948 149.536 14.8825C150.763 15.8011 151.995 16.7147 153.205 17.6551C153.733 18.0647 154.212 18.5356 154.716 18.976C155.097 19.3087 155.095 19.6324 154.707 19.9535C153.383 21.0488 152.059 22.1452 150.737 23.2426C150.303 23.6045 149.891 23.9928 149.457 24.3554C149.356 24.4435 149.228 24.4948 149.093 24.501C148.896 24.494 148.819 24.2615 148.955 24.0749C149.091 23.8884 149.245 23.7158 149.415 23.5596C150.826 22.2647 152.24 20.9729 153.656 19.6843C153.74 19.6073 153.826 19.532 153.951 19.4193Z" fill="#FF8906"/>
<path d="M149.792 19.4193C149.112 18.8361 148.473 18.2352 147.778 17.7065C146.844 16.9946 145.868 16.3359 144.906 15.6599C144.642 15.4737 144.544 15.2113 144.681 14.9841C144.822 14.7507 145.126 14.6948 145.377 14.8825C146.604 15.8011 147.836 16.7147 149.046 17.6551C149.574 18.0647 150.053 18.5356 150.557 18.976C150.938 19.3087 150.936 19.6324 150.548 19.9535C149.223 21.0488 147.9 22.1452 146.577 23.2426C146.144 23.6045 145.732 23.9928 145.298 24.3554C145.197 24.4435 145.068 24.4948 144.934 24.501C144.737 24.494 144.66 24.2615 144.796 24.0749C144.932 23.8884 145.086 23.7158 145.256 23.5596C146.667 22.2647 148.08 20.9729 149.497 19.6843C149.581 19.6073 149.667 19.532 149.792 19.4193Z" fill="#FF8906"/>
<rect x="7.5" y="4.5" width="32" height="32" rx="1.5" fill="#0F0E17" stroke="white" stroke-linejoin="round"/>
<circle cx="10" cy="7" r="1" fill="#FF002E"/>
<circle cx="13.5" cy="7" r="1" fill="#00BE91"/>
<circle cx="17" cy="7" r="1" fill="#FFCB36"/>
<path d="M10.6162 20.3871C11.016 20.7297 11.3915 21.0828 11.7993 21.3934C12.3485 21.8117 12.9216 22.1987 13.4867 22.5959C13.6423 22.7053 13.6995 22.8595 13.6191 22.993C13.5364 23.1301 13.3577 23.163 13.2103 23.0527C12.4893 22.513 11.7657 21.9762 11.0544 21.4236C10.7445 21.183 10.4629 20.9063 10.1669 20.6476C9.94285 20.452 9.94416 20.2619 10.1722 20.0732C10.9503 19.4297 11.7279 18.7855 12.5049 18.1407C12.7599 17.9281 13.0018 17.7 13.2566 17.4869C13.3162 17.4351 13.3916 17.405 13.4704 17.4014C13.5864 17.4054 13.6314 17.5421 13.5515 17.6517C13.4716 17.7613 13.3811 17.8627 13.2812 17.9545C12.4524 18.7153 11.6219 19.4743 10.7896 20.2314C10.7401 20.2766 10.6899 20.3208 10.6162 20.3871Z" fill="#FF8906"/>
<path d="M13.06 20.3871C13.4599 20.7297 13.8353 21.0828 14.2431 21.3934C14.7923 21.8117 15.3654 22.1987 15.9306 22.5959C16.0861 22.7053 16.1433 22.8595 16.0629 22.993C15.9803 23.1301 15.8015 23.163 15.6541 23.0527C14.9332 22.513 14.2095 21.9762 13.4982 21.4236C13.1884 21.183 12.9067 20.9063 12.6107 20.6476C12.3867 20.452 12.388 20.2619 12.616 20.0732C13.3941 19.4297 14.1717 18.7855 14.9488 18.1407C15.2037 17.9281 15.4457 17.7 15.7005 17.4869C15.7601 17.4351 15.8354 17.405 15.9143 17.4014C16.0303 17.4054 16.0752 17.5421 15.9954 17.6517C15.9155 17.7613 15.8249 17.8627 15.7251 17.9545C14.8962 18.7153 14.0657 19.4743 13.2334 20.2314C13.1839 20.2766 13.1337 20.3208 13.06 20.3871Z" fill="#FF8906"/>
<path d="M36.8838 20.1334C36.484 19.7908 36.1085 19.4377 35.7007 19.1271C35.1515 18.7088 34.5784 18.3218 34.0133 17.9246C33.8577 17.8152 33.8005 17.661 33.8809 17.5275C33.9636 17.3904 34.1423 17.3576 34.2897 17.4679C35.0107 18.0076 35.7343 18.5444 36.4456 19.0969C36.7555 19.3375 37.0371 19.6142 37.3331 19.873C37.5572 20.0685 37.5558 20.2587 37.3278 20.4473C36.5497 21.0908 35.7721 21.735 34.9951 22.3798C34.7401 22.5924 34.4982 22.8205 34.2434 23.0336C34.1838 23.0854 34.1084 23.1155 34.0296 23.1191C33.9136 23.1151 33.8686 22.9785 33.9485 22.8688C34.0284 22.7592 34.1189 22.6578 34.2188 22.566C35.0476 21.8052 35.8781 21.0462 36.7104 20.2891C36.7599 20.2439 36.8101 20.1997 36.8838 20.1334Z" fill="#FF8906"/>
<path d="M34.44 20.1334C34.0401 19.7908 33.6647 19.4377 33.2569 19.1271C32.7077 18.7088 32.1346 18.3218 31.5694 17.9246C31.4139 17.8152 31.3567 17.661 31.4371 17.5275C31.5197 17.3904 31.6985 17.3576 31.8459 17.4679C32.5668 18.0076 33.2905 18.5444 34.0018 19.0969C34.3116 19.3375 34.5933 19.6142 34.8893 19.873C35.1133 20.0685 35.112 20.2587 34.884 20.4473C34.1059 21.0908 33.3283 21.735 32.5512 22.3798C32.2963 22.5924 32.0543 22.8205 31.7995 23.0336C31.7399 23.0854 31.6646 23.1155 31.5857 23.1191C31.4697 23.1151 31.4248 22.9785 31.5046 22.8688C31.5845 22.7592 31.6751 22.6578 31.7749 22.566C32.6038 21.8052 33.4343 21.0462 34.2666 20.2891C34.3161 20.2439 34.3663 20.1997 34.44 20.1334Z" fill="#FF8906"/>
<path d="M18.1147 24.0738V16.5H21.2308C21.7069 16.5 22.1252 16.5974 22.4859 16.7921C22.8538 16.9797 23.1387 17.2466 23.3406 17.5928C23.5498 17.939 23.6544 18.3502 23.6544 18.8262V18.9777C23.6544 19.4466 23.5462 19.8577 23.3298 20.2111C23.1206 20.5574 22.8321 20.8279 22.4643 21.0226C22.1036 21.2102 21.6925 21.3039 21.2308 21.3039H19.5429V24.0738H18.1147ZM19.5429 20.0056H21.0902C21.4292 20.0056 21.7033 19.9118 21.9125 19.7243C22.1216 19.5367 22.2262 19.2807 22.2262 18.9561V18.8479C22.2262 18.5233 22.1216 18.2672 21.9125 18.0797C21.7033 17.8921 21.4292 17.7984 21.0902 17.7984H19.5429V20.0056Z" fill="#FF8906"/>
<path d="M24.6446 24.0738V16.5H26.0728V22.7754H29.5351V24.0738H24.6446Z" fill="#FF8906"/>
</svg>
