<svg width="66" height="66" viewBox="0 0 66 66" fill="none" xmlns="http://www.w3.org/2000/svg">
<rect width="66" height="66" rx="2" fill="#0F0E17"/>
<circle cx="4" cy="4" r="2" fill="#FF002E"/>
<circle cx="11" cy="4" r="2" fill="#00BE91"/>
<circle cx="18" cy="4" r="2" fill="#FFCB36"/>
<path d="M7.23238 32.7742C8.03204 33.4595 8.7829 34.1656 9.5986 34.7869C10.697 35.6234 11.8432 36.3974 12.9734 37.1919C13.2845 37.4106 13.399 37.719 13.2382 37.986C13.0729 38.2602 12.7153 38.3259 12.4206 38.1053C10.9787 37.0259 9.53131 35.9523 8.10878 34.8472C7.48908 34.366 6.92575 33.8126 6.33375 33.2951C5.8857 32.9041 5.88832 32.5237 6.34435 32.1465C7.90059 30.8593 9.45574 29.571 11.0098 28.2815C11.5198 27.8561 12.0037 27.3999 12.5133 26.9738C12.6325 26.8703 12.7831 26.81 12.9408 26.8027C13.1728 26.8109 13.2628 27.0841 13.103 27.3034C12.9432 27.5226 12.7621 27.7254 12.5624 27.9089C10.9048 29.4306 9.24371 30.9486 7.57918 32.4628C7.4802 32.5533 7.37975 32.6417 7.23238 32.7742Z" fill="#FF8906"/>
<path d="M12.1201 32.7742C12.9197 33.4595 13.6706 34.1656 14.4863 34.7869C15.5847 35.6234 16.7309 36.3974 17.8611 37.1919C18.1722 37.4106 18.2867 37.719 18.1259 37.986C17.9606 38.2602 17.603 38.3259 17.3083 38.1053C15.8664 37.0259 14.419 35.9523 12.9965 34.8472C12.3768 34.366 11.8134 33.8126 11.2214 33.2951C10.7734 32.9041 10.776 32.5237 11.232 32.1465C12.7883 30.8593 14.3434 29.571 15.8975 28.2815C16.4075 27.8561 16.8913 27.3999 17.401 26.9738C17.5202 26.8703 17.6708 26.81 17.8285 26.8027C18.0605 26.8109 18.1505 27.0841 17.9907 27.3034C17.8309 27.5226 17.6498 27.7254 17.4501 27.9089C15.7925 29.4306 14.1314 30.9486 12.4669 32.4628C12.3679 32.5533 12.2674 32.6417 12.1201 32.7742Z" fill="#FF8906"/>
<path d="M59.7676 32.2668C58.968 31.5815 58.2171 30.8754 57.4014 30.2541C56.303 29.4176 55.1568 28.6436 54.0266 27.8492C53.7155 27.6304 53.601 27.322 53.7618 27.0551C53.9271 26.7808 54.2847 26.7151 54.5794 26.9357C56.0213 28.0151 57.4687 29.0887 58.8912 30.1938C59.5109 30.6751 60.0742 31.2284 60.6662 31.7459C61.1143 32.1369 61.1117 32.5173 60.6556 32.8946C59.0994 34.1817 57.5443 35.47 55.9902 36.7596C55.4802 37.1849 54.9963 37.6411 54.4867 38.0672C54.3675 38.1707 54.2169 38.231 54.0592 38.2383C53.8272 38.2301 53.7372 37.9569 53.897 37.7376C54.0568 37.5184 54.2379 37.3156 54.4376 37.1321C56.0952 35.6104 57.7563 34.0924 59.4208 32.5782C59.5198 32.4877 59.6202 32.3993 59.7676 32.2668Z" fill="#FF8906"/>
<path d="M54.8799 32.2668C54.0803 31.5815 53.3294 30.8754 52.5137 30.2541C51.4153 29.4176 50.2691 28.6436 49.1389 27.8492C48.8278 27.6304 48.7133 27.322 48.8741 27.0551C49.0394 26.7808 49.397 26.7151 49.6917 26.9357C51.1336 28.0151 52.581 29.0887 54.0035 30.1938C54.6232 30.6751 55.1866 31.2284 55.7786 31.7459C56.2266 32.1369 56.224 32.5173 55.768 32.8946C54.2117 34.1817 52.6566 35.47 51.1025 36.7596C50.5925 37.1849 50.1087 37.6411 49.599 38.0672C49.4798 38.1707 49.3292 38.231 49.1715 38.2383C48.9395 38.2301 48.8495 37.9569 49.0093 37.7376C49.1691 37.5184 49.3502 37.3156 49.5499 37.1321C51.2075 35.6104 52.8686 34.0924 54.5331 32.5782C54.6321 32.4877 54.7326 32.3993 54.8799 32.2668Z" fill="#FF8906"/>
<path d="M22.2295 40.1475V25H28.4616C29.4138 25 30.2505 25.1948 30.9718 25.5843C31.7075 25.9593 32.2774 26.4931 32.6813 27.1856C33.0997 27.878 33.3088 28.7003 33.3088 29.6525V29.9554C33.3088 30.8931 33.0924 31.7154 32.6597 32.4223C32.2413 33.1148 31.6642 33.6557 30.9285 34.0452C30.2072 34.4203 29.3849 34.6079 28.4616 34.6079H25.0859V40.1475H22.2295ZM25.0859 32.0111H28.1803C28.8583 32.0111 29.4065 31.8236 29.8249 31.4485C30.2433 31.0734 30.4524 30.5613 30.4524 29.9121V29.6957C30.4524 29.0466 30.2433 28.5344 29.8249 28.1593C29.4065 27.7843 28.8583 27.5967 28.1803 27.5967H25.0859V32.0111Z" fill="#FF8906"/>
<path d="M35.2892 40.1475V25H38.1456V37.5508H45.0702V40.1475H35.2892Z" fill="#FF8906"/>
</svg>
